<svg xmlns="http://www.w3.org/2000/svg" viewBox="0 0 540 121" version="1.1" width="540" height="121">
	<path d="M 390.5 2.9721755584122675 C 344.0561813135934 3.409928820257883, 334.129571298589 3.7459094789060923, 332.32925767120923 4.94104955387906 C 331.1353493903743 5.733626808512543, 321.9272873288113 14.619428354866038, 311.8668975344026 24.687275212442383 C 299.25042991992837 37.31309453175864, 293.34824668150964 42.58676577317995, 292.84352787047874 41.68488329389535 C 292.44106434972934 40.96572088111815, 291.1860979393343 34.77991933476466, 290.05471362515635 27.938657635332035 C 288.92332931097843 21.097395935899414, 287.75278883130477 14.037500000000001, 287.4535125592149 12.25 L 286.9093738826879 9 267.45468694134394 9 C 252.5505252930511 9, 248.00310453000625 9.292379755760846, 248.01327267853318 10.25 C 248.02057265172644 10.9375, 251.66626645514287 22.074999999999996, 256.11481446390303 35 C 267.7718532582186 68.86885476335911, 267.0549760456159 64.39756335982972, 262.56545074548694 75.23377231984283 C 254.15026827722482 95.54520160616566, 251.67370901780643 102.00704235114338, 252.12961954729448 102.46295288062892 C 252.39177758859483 102.72511092192784, 261.34072991962955 100.59069299522679, 272.01618028292717 97.71980193240438 C 294.40916562950366 91.69777763238774, 291.876428016321 93.88007044952975, 298.1403515108499 75.2103280225338 C 300.99434292718865 66.70395263681257, 303.0696675577304 62.182001395478586, 304.88184225512964 60.52120806948811 C 306.3218290148083 59.20151168291939, 313.6130757453494 53.03186407277917, 321.0846127674431 46.81088004695431 C 328.5561497895368 40.589896021129434, 338.4561497895368 32.30076061039404, 343.0846127674431 28.390579134208977 C 347.7130757453494 24.480397658023918, 352.40538108965177 20.809393267749613, 353.511957977004 20.232791600266083 C 355.3376988398589 19.28145668811741, 365.0807645244827 18.411916900697406, 429.5 13.451083660904139 C 454.35629069945867 11.536936245002222, 503.46784824207094 7.180336631415948, 507.5 6.531841289800669 C 509.15 6.266469999754089, 516.2731463838378 5.590656559011681, 523.3292141863062 5.030033643706426 C 530.3852819887748 4.469410728401173, 536.9102819887747 3.571991329143172, 537.8292141863062 3.035768312021979 C 539.5889940134144 2.008886839269389, 494.7541738049502 1.9895344678446212, 390.5 2.9721755584122675 M 52.95056132968625 10.361980357455732 C 50.4483700610137 11.036826642079056, 46.74889206983252 12.6101082638134, 44.729499127061416 13.85816173908761 C 41.10877996985345 16.095889241960002, 33 24.537332306955026, 33 26.068864141928522 C 33 26.501870433808683, 25.970716487524747 41.1760149394621, 17.379369972277214 58.67807415449168 C 2.2592694588918683 89.48033478416258, 0.2995979297858633 94.69909022468242, 2.8828816526410144 97.28333333333288 C 3.8050129778339628 98.20580712175857, 15.954096941406263 98.5, 53.12674063854128 98.5 L 102.1543846384672 98.5 106.55311218991046 88.5 C 108.97241234320425 83, 110.96267579954913 77.9375, 110.97591987067686 77.25 C 110.99466567762067 76.2769047825569, 104.27082562110164 76, 80.62324776064646 76 L 50.246495521292935 76.00000000000001 58.52718263865313 57.1137578682828 C 63.08156055320123 46.726324695838336, 67.31693175222992 37.27632469583833, 67.93911863649465 36.113757868282796 C 69.05328050237314 34.03192737883362, 69.53819602053147 34, 100.04303788714608 33.99999999999999 L 131.0157082573162 33.999999999999986 137.0078541286581 21.90255196229395 C 140.30353435789615 15.248955541555627, 143 9.62395554155563, 143 9.402551962293956 C 143 8.301159319672646, 57.20226027715303 9.215288146529343, 52.95056132968625 10.361980357455732 M 145.56480008936921 22.26312920578631 C 142.30044013852225 29.543408142603838, 136.17221194568972 43.15, 131.94651521640805 52.5 C 119.0708957500187 80.98927637814745, 112.72844393571943 96.06177726905193, 113.35305064905529 96.68638398238866 C 113.95542092856392 97.28875426189813, 147.5612494040977 90.45853019161738, 151.80002101364585 88.87222095394911 C 153.06503257115105 88.39880561000668, 154.54186695798344 86.77138598193713, 155.0818752066067 85.25573289157234 C 155.62188345522998 83.74007980120756, 160.69976474531381 71.25, 166.36605585123743 57.5 L 176.66840331655314 32.5 192.33597827968384 32 C 200.95314450940575 31.725, 208.00784383984677 31.725, 208.01308790288613 32 C 208.01833196592548 32.275, 206.37476357757632 36.86662967960492, 204.36071370655463 42.20362151023315 C 200.13480559360357 53.40177375080526, 201.69047146281594 52.51825612227422, 183.65605926271598 53.96252652692355 C 167.14099282114648 55.28512143202636, 166.51605331926348 56.10707355760669, 172.85777617776517 68.16497605611816 C 174.97955307553605 72.19923922525317, 179.7548115577651 81.35, 183.46946169382971 88.5 C 187.18411182989436 95.65, 190.5888552385654 101.89324268866551, 191.03555815754314 102.37387264147891 C 192.32655119194297 103.76291644407148, 237.47081652719916 120.89776786147208, 237.76637499485065 120.11091182407662 C 238.0845570773359 119.2638256465635, 225.11010220024355 95.20787098457049, 210.33480494322242 69.25 L 207.91569232109458 65.00000000000001 211.7910647141261 65 C 217.11913144625905 64.99999999999996, 226.15191472423032 63.09330345544467, 228.31421707656972 61.51218937229858 C 230.30128350996088 60.05921092153633, 243.66133463152443 26.02469126031464, 244.9721361764457 19.07640301481208 C 245.7388528928043 15.012196065601609, 245.57702432980707 14.423178175960873, 242.98024916865825 11.82640301481208 L 240.15384615384613 9 195.82692307692307 9.01312920578631 L 151.5 9.026258411572618 145.56480008936921 22.26312920578631 M 429.5 19.02393898767459 C 422.9 19.420372219990718, 413.225 20.02422091089623, 408 20.36582496746462 C 402.775 20.70742902403301, 391.075 21.444946554131437, 382 22.00475281212779 C 354.9984474287714 23.67038786501939, 357.0349606795443 23.062292016888538, 346.4540583940335 32.6186486462382 C 337.75044007545824 40.47949816300789, 337.01084621508033 41.47031786589302, 332.9443221654673 50.71738303703604 C 314.635212517888 92.35135054126869, 314.5990735197623 92.45621637690681, 317.54500238115565 95.40214523829859 C 320.9175510525394 98.77469390968054, 326.44338567388485 99.11494709785532, 372.8118598480221 98.8052012003541 C 422.7882643766549 98.47135397871664, 421.05535590184445 98.6676031378878, 430.2798503144054 92.2970416684333 C 437.1103859317669 87.57978074620351, 440.3046763382724 81.7365871426693, 448.48229712399876 59 C 452.7353701636961 47.175, 457.0667468270361 35.14874213115931, 458.1075785980878 32.27498251368735 C 460.2686172744805 26.308306771518925, 460.55226128840127 20.952261288401285, 458.8 19.200000000000006 C 457.48553469284843 17.885534692848402, 449.274131113718 17.83619312196942, 429.5 19.02393898767459 M 415 35.04078093505595 C 415 35.848711175908555, 399.251627153017 75.63587488326819, 398.4855627964512 76.76335271671056 C 398.1659170266485 77.23380081538156, 367.5505059920402 77.68623036352433, 365.8483259450947 77.24566047683163 C 364.41817356925185 76.87549865328714, 364.66140304005387 75.7983336138553, 367.66185411990944 69.21427702032184 C 369.5677153462554 65.03213978838023, 373.17387780044857 56.63555313664988, 375.67554846256087 50.55519557203218 C 378.17721912467323 44.47483800741448, 380.8601875118108 38.2625, 381.6377004339778 36.75 L 383.0513602924632 34 399.0256801462316 34 C 409.42584139238187 34, 415 34.36317527512249, 415 35.04078093505595" stroke="none" fill-rule="evenodd" data-fill-layer-id="trace-color" style="fill:#000000" data-layer-color="#000000" fill="#000000" />
</svg>